<?xml version="1.0" encoding="UTF-8" standalone="no"?>
<svg
   xmlns:dc="http://purl.org/dc/elements/1.1/"
   xmlns:cc="http://creativecommons.org/ns#"
   xmlns:rdf="http://www.w3.org/1999/02/22-rdf-syntax-ns#"
   xmlns:svg="http://www.w3.org/2000/svg"
   xmlns="http://www.w3.org/2000/svg"
   viewBox="0 0 1600 1600"
   height="1600"
   width="1600"
   xml:space="preserve"
   id="svg2"
   version="1.1"><metadata
     id="metadata8"><rdf:RDF><cc:Work
         rdf:about=""><dc:format>image/svg+xml</dc:format><dc:type
           rdf:resource="http://purl.org/dc/dcmitype/StillImage" /></cc:Work></rdf:RDF></metadata><defs
     id="defs6" /><g
     transform="matrix(1.3333333,0,0,-1.3333333,0,1600)"
     id="g10"><g
       transform="scale(0.1)"
       id="g12"><path
         id="path26632"
         style="fill:rgb(185 28 28);fill-opacity:1;fill-rule:nonzero;stroke:none"
         d="m 6857.11,8145.88 c 1.34,-0.91 2.68,-1.82 4.02,-2.73 4.09,5.73 8.19,11.43 12.28,17.14 -1.62,1.11 -3.23,2.21 -4.87,3.29 -3.79,-5.88 -7.61,-11.79 -11.43,-17.7 z m -5.65,-12.63 c -2.28,1.94 -4.58,3.87 -6.87,5.81 -1.72,-3.38 -3.88,-6.63 -5.03,-10.18 -1.03,-3.25 -0.96,-6.83 -1.39,-10.26 1.29,-0.31 2.57,-0.62 3.85,-0.92 3.14,5.18 6.29,10.36 9.44,15.55 z m -161.84,-218.29 c 1.86,-1.49 3.73,-2.99 5.6,-4.48 2.65,4.48 5.3,8.97 7.95,13.45 -1.13,0.86 -2.27,1.7 -3.4,2.56 -3.39,-3.84 -6.78,-7.69 -10.15,-11.53 z m 943.56,-742.19 c -1.75,1.38 -3.51,2.78 -5.26,4.17 -4.38,-6.16 -8.72,-12.33 -13.1,-18.49 1.33,-1 2.64,-2 3.96,-3.01 4.8,5.78 9.6,11.56 14.4,17.33 z m -412.67,1443.47 c -1.57,1.43 -3.16,2.88 -4.73,4.31 -5.57,-6.68 -11.13,-13.37 -16.69,-20.05 1.47,-1.24 2.92,-2.47 4.39,-3.72 5.67,6.49 11.35,12.97 17.03,19.46 z M 6937.7,8260.75 c 1.79,-1.43 3.6,-2.84 5.4,-4.28 3.82,4.95 7.92,9.71 11.26,14.96 0.6,0.94 -1.85,3.81 -4.48,8.8 -5.05,-8.08 -8.61,-13.77 -12.18,-19.48 z m 198.49,248.91 c -2.43,1.91 -4.86,3.8 -7.31,5.71 -2.63,-11.58 -17.04,-15.88 -15.97,-36.58 10.03,13.3 16.65,22.08 23.28,30.87 z M 6781.33,6109.32 c -2.3,1.75 -4.6,3.49 -6.91,5.25 -5.68,-6.49 -13.69,-11.69 -9.57,-29.63 7.38,10.9 11.93,17.64 16.48,24.38 z m 36.98,44.64 c -13.88,-1.92 -24.17,1.38 -26.55,-12.23 -0.38,-2.16 1.84,-6.51 3.71,-7.07 12.37,-3.79 16.31,4.66 22.84,19.3 z m -146.8,-2004.11 c -2.59,20.11 -9.5,28.13 -24.68,32.08 0.18,-15.97 10.72,-21.08 24.68,-32.08 z m -288.02,348.49 c 2.55,0.94 5.12,1.87 7.67,2.8 4.35,14.6 -6.26,19.5 -21.32,21.82 4.55,-8.2 9.1,-16.42 13.65,-24.62 z M 8221.7,2570.8 c -1.7,-1.48 -3.39,-2.94 -5.08,-4.4 3.86,-20.67 3.86,-20.67 26.77,-21.9 -8.68,10.51 -15.19,18.4 -21.69,26.3 z m 35.09,-49.05 c 5.23,-18.8 17.77,-29.35 40.19,-36.46 -10.07,20.73 -21.75,32.11 -40.19,36.46 z M 6807.37,5989.73 c -4.68,17.98 -15.16,31.59 -33.15,45.71 2.45,-25.86 16.63,-36.67 33.15,-45.71 z M 9016.11,2351.8 c -12.25,25.66 -35.72,24.16 -51.72,38.65 3.32,-17.53 3.32,-17.53 51.72,-38.65 z M 5259.3,5988.83 c -0.86,-2.48 -3.23,-6.07 -2.34,-7.28 10.85,-14.91 22.18,-29.47 37.03,-48.9 4.84,33.37 -24.58,37.92 -34.69,56.18 z M 8714.98,2413.51 c 1.69,1.54 3.37,3.09 5.06,4.63 -6.26,24.99 -16.35,34.37 -45.46,37.93 15.4,-16.23 27.91,-29.39 40.4,-42.56 z m 341.32,-81.9 c 11.9,-8.69 18.25,-14.47 25.61,-18.18 3.22,-1.61 10.46,-0.41 12.48,2.18 2.2,2.82 2.18,9.66 0.22,13.1 -8.5,14.82 -20.08,9.71 -38.31,2.9 z m 8.8,69.44 c -0.6,-17.94 6.03,-30.51 18.39,-32.62 12.01,-2.04 17.28,4.27 18.02,15.47 -13.12,6.18 -24.76,11.67 -36.41,17.15 z M 5292.33,5985.94 c 5.96,-9.05 11.57,-17.56 18.05,-27.39 5.6,7.33 11.14,14.58 17.35,22.69 -7.66,8.65 -13.79,15.58 -20.57,23.22 -4.43,-3.62 -7.84,-5.55 -10.03,-8.42 -2.24,-2.93 -3.29,-6.78 -4.8,-10.1 z M 8847.6,9989.96 c 24.82,14.74 51.74,51.84 54.38,75.24 -20.52,-26.5 -40.26,-48.8 -54.38,-75.24 z m 237.61,-7437.13 c -7.97,33.03 -18.78,45.76 -42.79,47.82 14.36,-17.35 18.37,-39.7 42.79,-47.82 z M 7469.69,8923.34 c 25.4,23.28 50.77,46.82 68.68,76.96 -27.24,-21.65 -49.96,-47.4 -68.68,-76.96 z M 6793.23,6048.83 c 13.41,-11.83 25.72,-22.71 43.02,-37.99 -3.18,27.62 -18.37,39.53 -29.77,56.41 -5.05,-7.05 -8.76,-12.19 -13.25,-18.42 z M 8532.6,2560.08 c -1.8,15.81 -8.72,26.16 -19.89,32.07 -9.23,4.88 -12.02,22.38 -28.35,16.42 12.43,-33.83 23.12,-44.9 48.24,-48.49 z M 5226.15,5934.46 c -13.47,-23.95 -6.68,-37.97 25.95,-58.66 10.18,28.08 -15.37,37.75 -25.95,58.66 z M 3614.51,2240.56 c 29.43,30.06 58.46,74.15 60.94,90.89 -21.22,-16.66 -55.37,-65.94 -60.94,-90.89 z m -646.82,7292.5 c -14.19,36.94 -60.41,93.66 -79.76,100.34 8.07,-20.25 59.16,-85.94 79.76,-100.34 z M 6695.38,7954.8 c 2.78,-1.88 5.59,-3.75 8.37,-5.61 15.06,20.49 30.12,40.98 45.52,61.94 5.12,-1.68 10.03,-3.28 16.28,-5.34 4.38,8.46 8.29,16.01 13.84,26.75 -8,-4.03 -11.92,-6 -19.75,-9.94 6.58,21.28 23.92,33.74 21.46,54.9 -28.57,-40.9 -57.15,-81.81 -85.72,-122.7 z M 8408.23,2374.11 c -12.72,26.72 -76.95,87.5 -98.15,95.03 12.43,-30.45 61.03,-78.48 98.15,-95.03 z m 68.35,6504.31 c 23.93,18.8 48.31,37.05 71.55,56.65 12.07,10.15 10.24,14.95 -6.56,27.2 -28.41,-14.13 -50.28,-40.22 -64.99,-83.85 z m 255.24,291.92 c -26.24,-15.12 -39.41,-36.49 -54.36,-55.08 -30.63,-38.09 -59.09,-77.9 -88.37,-117.06 -0.37,-0.49 0.35,-1.79 0.59,-2.87 8.34,-0.53 16.71,-1.05 25.59,-1.6 22.67,35.09 44.62,69.95 67.54,104.14 7.86,11.73 16.6,23.95 27.76,32.13 12.94,9.53 17.55,20.99 21.25,40.34 z M 4145.38,8743.56 c 7.98,-16 14.31,-31.89 23.43,-45.98 8.82,-13.62 19.57,-26.34 31.23,-37.63 11.21,-10.88 15.81,-29.95 38.95,-33.56 -4.1,9.46 -6.38,15.47 -9.26,21.16 -10.38,20.57 -21.37,40.83 -31.34,61.6 -5.35,11.13 -7.67,23.87 -13.84,34.44 -10.63,18.22 -16.59,18.19 -39.17,-0.03 z m -13.55,103.22 c -2.45,3.34 -4.97,7.47 -8.16,11 -37.47,41.52 -75.52,82.52 -112.29,124.66 -9.88,11.32 -17.86,25.27 -23.21,39.37 -7.11,18.67 -21.25,27.79 -38.89,34.99 16.84,-47.4 50.07,-84.41 79.16,-123.79 30.14,-40.79 61.82,-80.43 93.82,-121.85 3.66,13.62 6.49,24.17 9.57,35.62 z m 1081.2,-2949.37 c -1.96,0 -3.74,0.13 -3.77,-0.01 -4.62,-30.53 -22.91,-52.11 -44.09,-73.15 -11.26,-11.2 -20.25,-27.28 -23.56,-42.6 -1.32,-6.09 3.26,-16.34 -3.43,-22.22 -5.58,-4.91 -13.74,-6.86 -20.75,-10.13 0.7,-4.17 1.41,-8.36 1.98,-11.77 -22.72,-0.5 -26.03,-18.12 -33.74,-30 5.27,-7.67 9.65,-14.05 14.02,-20.39 17.26,12.93 121.56,146.8 136.74,176.12 -7.56,11.02 -15.65,22.83 -23.4,34.15 z M 7920.15,2554.89 c -24.81,22.66 -49.63,45.3 -74.34,68.05 -2.67,2.44 -4.67,5.64 -4.49,12.61 29.36,-13.38 58.72,-26.77 89.1,-40.63 6.44,5.68 8.76,11.86 3.05,19.6 -8.51,11.55 -14.82,27.37 -26.26,33.45 -16.8,8.92 -23.03,24.97 -34.73,37.03 -34.71,35.81 -69.23,71.85 -102.73,108.76 -21.32,23.5 -40.3,49.09 -61.11,73.07 -14.51,16.69 -30.93,31.71 -45.48,48.37 -19.65,22.49 -38.26,45.93 -57.49,68.8 -42.83,50.9 -85.55,101.92 -128.85,152.41 -10.58,12.3 -24.09,22.09 -34.79,34.3 -19.68,22.46 -37.46,46.61 -57.62,68.61 -12.75,13.91 -24.62,28.88 -44,36.56 -8.29,3.28 -23.62,9.37 -18.75,27.59 1.22,4.6 -10.92,12.76 -21.47,16.5 0.55,-5.8 1.09,-11.58 1.9,-20.12 -17.94,6.63 -26.47,20.15 -33.72,32.49 -18.23,31 -43.72,55.98 -66.47,83.05 -24.76,29.45 -53.75,55.38 -80.91,82.81 -25.76,25.99 -51.8,51.67 -77.17,78.05 -6.58,6.85 -11.26,15.57 -16.54,23.61 -2.63,4 -3.73,9.34 -7.02,12.49 -27.01,25.7 -55.81,49.66 -81.3,76.77 -44.28,47.11 -86.69,95.96 -129.63,144.31 -22.45,25.27 -43.91,51.41 -66.56,76.5 -34.89,38.68 -71.2,76.13 -105.47,115.35 -35.55,40.73 -69.67,82.71 -103.94,124.54 -47.09,57.52 -93.78,115.38 -140.49,173.19 -10.15,12.57 -19.68,25.64 -25.65,42.33 3.78,-3.02 7.53,-6.1 11.33,-9.12 20.86,-16.55 31.46,-43.86 57.57,-54.95 0.81,-0.34 1.7,-1.25 1.96,-2.06 10.7,-36.27 41.19,-56.15 66.34,-80.5 3.37,-3.24 6.48,-7.47 7.96,-11.84 9.21,-27.25 27.07,-47.52 49.21,-65.12 8.13,-6.47 13.72,-16.08 20.53,-24.2 12.67,-15.14 19.95,-35.37 42.43,-41.23 5.23,-1.37 10.72,-9.31 12.43,-15.26 7.86,-27.59 29.12,-43.53 48.86,-61.72 22.63,-20.85 42.94,-44.27 63.8,-66.98 2.97,-3.23 3.27,-8.82 5.03,-13.24 1.77,-4.43 2.57,-10.6 5.93,-12.82 37.67,-24.82 57.27,-65.78 87.44,-97.26 30.74,-32.06 59.63,-65.96 91.41,-96.92 42.8,-41.69 87.6,-81.32 135.76,-125.75 -10.27,35.71 -32.3,57.08 -52.41,77.66 -21.1,21.59 -26.69,53.15 -53.24,70.9 -25.42,16.99 -47.88,38.37 -62.88,67.64 7.49,-3.95 14.99,-7.88 25.72,-13.53 -2.03,17.39 -9.79,27.7 -19.41,36.96 -46.56,44.84 -83.94,98.82 -136.82,137.43 -7.06,5.14 -13.91,11.56 -5.06,21.27 0.96,1.05 1.04,4.17 0.19,5.4 -9.58,13.66 -19.77,26.91 -29.12,40.72 -28.22,41.6 -72.16,69.3 -98.61,112.73 -11.39,18.71 -27.25,34.69 -40.8,52.13 -2.65,3.43 -3.99,7.91 -3.18,15.16 12.51,-7.7 25.03,-15.43 40.91,-25.21 2.14,19.46 -6.93,28.5 -14.29,37.94 -20.77,26.61 -39.17,55.83 -63.45,78.79 -37.46,35.41 -65.1,78.48 -99.15,116.32 -8.07,8.99 -19.96,14.47 -28.44,23.16 -8.21,8.38 -26.11,11.06 -18.79,30.72 1.33,3.55 -9.85,11.79 -19.69,22.83 0,-13.52 0,-19.86 0,-26.22 -1.72,-0.81 -3.45,-1.63 -5.17,-2.44 -37.11,49.53 -74.22,99.07 -111.32,148.62 -5.76,-2.18 -9.94,-3.78 -15.03,-5.72 -26.18,37.72 -52.41,75.54 -80.09,115.45 3.78,2.27 8.64,5.21 15.94,9.63 -12.94,20.99 -25.35,42.38 -38.99,62.94 -19.12,28.8 -38.69,57.32 -59,85.29 -13.49,18.56 -28.94,35.7 -42.84,53.99 -5.56,7.31 -9.37,15.93 -13.93,24.01 -2.78,4.93 -4.5,10.89 -8.35,14.75 -10.61,10.68 -22.06,20.49 -34.78,32.1 -3.48,-2.86 -8.5,-5.62 -11.64,-9.81 -76.4,-101.98 -153.42,-203.52 -228.55,-306.44 -55.17,-75.61 -107.67,-153.17 -161.61,-229.67 -10.02,-14.22 -20.85,-27.89 -32.09,-41.16 -4.31,-5.09 -10.8,-8.34 -16.3,-12.41 -1.93,1.7 -3.86,3.43 -5.78,5.15 13.2,20.51 25.73,41.49 39.77,61.41 16.06,22.79 33.5,44.6 50.29,66.9 12.71,16.87 25.34,33.8 37.92,50.77 11.76,15.87 15.94,33.61 16.62,53.43 0.41,11.93 7.06,23.64 15.46,34.42 -3.2,-13.48 -6.39,-26.96 -9.58,-40.44 0.81,-0.31 1.63,-0.6 2.44,-0.91 68.67,103.22 137.34,206.43 207.44,311.81 -2.49,4.41 -6.59,11.73 -13.29,23.61 9.39,-3.99 14.65,-6.26 21.18,-9.04 14.92,4.41 17.06,21.33 26.87,31.14 10.08,10.09 22.55,17.79 36.89,28.75 -21.42,14.41 -36,24.2 -53.12,35.73 -19.51,-27.28 -37.92,-51.83 -55.05,-77.26 -20.38,-30.23 -38.84,-61.78 -59.76,-91.62 -9.5,-13.54 -26.51,-19.79 -36.24,-34.75 -12.71,-19.59 -24.75,-38.26 -18.86,-62.51 -18.47,-5 -7.82,10.35 -10.66,15.68 -3.26,-1.72 -5.58,-2.15 -6.24,-3.42 -6.9,-13.49 -11.85,-28.3 -20.49,-40.52 -69.22,-97.73 -139.31,-194.86 -208.79,-292.43 -78.48,-110.2 -156.93,-220.41 -234.74,-331.1 -52.18,-74.27 -102.78,-149.67 -154.85,-224.03 -38.23,-54.55 -77.89,-108.07 -116.6,-162.29 -70.19,-98.29 -140.04,-196.81 -210.23,-295.09 -31.45,-44.01 -63.65,-87.5 -94.89,-131.66 -9.32,-13.18 -16.54,-27.84 -24.55,-41.51 8.38,-11.57 17.35,-12 25.69,-4.35 7.73,7.11 14.18,15.72 20.67,24.09 41.48,53.39 82.79,106.9 124.33,160.25 1.33,1.72 4.46,2.06 10.86,4.81 -3.78,-8.4 -5.34,-13.62 -8.23,-17.98 -31.51,-47.46 -61.96,-95.67 -95.14,-141.92 -54.57,-76.07 -109.38,-152.03 -166.94,-225.83 -72.41,-92.84 -145.82,-185.06 -222.22,-274.62 -78.3,-91.81 -161.06,-179.79 -241.22,-270.03 -46.16,-51.97 -90.72,-105.39 -136.63,-157.6 -23.35,-26.54 -48.07,-51.87 -74.45,-76.01 -2.81,17.7 8.19,29.15 17.04,39.87 29.43,35.63 60.46,69.97 90.88,104.79 1.89,2.16 5.15,4.15 5.46,6.53 3.98,29.94 27.86,47.4 43.3,70.14 0.81,1.17 0.11,3.35 0.11,10.37 -89.6,-87.74 -167.41,-181.3 -250.58,-276.19 -1.77,19.9 10.14,28.74 15.63,39.97 5.42,11.08 13.01,21.12 21.09,33.9 -18.83,2.63 -25.72,-10.64 -34.06,-21.06 -8.26,-10.3 -16.15,-20.88 -24.21,-31.32 -1.9,1.21 -3.79,2.43 -5.69,3.64 12.61,21.36 25.21,42.71 37.81,64.06 -1.83,1.43 -3.64,2.85 -5.48,4.28 -28.07,-16.14 -39.17,-48.79 -62.04,-70.34 -22.79,-21.48 -38.72,-50.23 -56.39,-74.06 -1.55,11.68 2.42,21.38 12.3,36.2 40.15,60.23 79.78,120.8 119.45,181.34 1.36,2.08 1.22,5.13 2.77,12.4 -8.12,-5.16 -13.89,-7.51 -17.87,-11.6 -11.26,-11.58 -21.69,-23.94 -32.63,-35.81 -30.6,-33.26 -62.94,-64.73 -90.05,-101.38 -24.04,-32.49 -52.6,-61.67 -79.43,-92.07 -6.18,-7 -28.49,-10.03 -46.98,-6.26 11.34,19.81 21.77,38.91 33.06,57.49 11.98,19.76 24.49,39.21 37.28,58.46 16.61,25.02 32.49,49.55 29.6,82.27 -0.98,10.91 7.01,22.6 7.39,36.05 -20.96,-23.67 -41.76,-47.49 -62.95,-70.95 -63.46,-70.23 -126.12,-141.23 -190.89,-210.23 -63.48,-67.63 -129.23,-133.11 -193.79,-199.72 -11.42,-11.8 -21.68,-24.7 -32.9,-36.6 -2.85,-3.1 -7.26,-4.7 -14.55,-9.2 2.08,10.5 4.31,16.8 4.2,23.1 -0.08,4 -2.65,9.9 -5.84,11.5 -3.28,1.7 -9.53,0.6 -13.01,-1.5 -10.58,-6.7 -20.46,-14.5 -27.92,-19.9 -0.34,3.9 -1.23,14.4 -2.12,24.8 -2.28,1.3 -4.56,2.6 -6.83,3.9 -2.97,-6.7 -5.94,-13.5 -8.91,-20.2 -1.28,1.1 -2.54,2.3 -3.82,3.5 1.05,11.8 2.08,23.6 3.13,35.4 -2.16,1.1 -4.29,2.1 -6.45,3.2 -13.17,-16.2 -26.34,-32.3 -39.5,-48.4 -1.34,0.8 -2.67,1.7 -4,2.6 7.93,35 15.87,70.1 24.43,107.83 -22.65,-3.59 -21.66,-26.79 -40.37,-34.93 3.08,63.51 29.76,118.57 41.92,180.54 -30,-15.53 -27.03,-51.38 -56.46,-69.91 16.27,41.9 42.29,73.17 56.43,110.64 -50,-35.89 -76.42,-92.41 -124.51,-131.02 4.8,9.4 9.6,18.79 14.42,28.18 -1.26,1.08 -2.52,2.16 -3.79,3.24 -6.44,-4.88 -14.37,-8.62 -19.06,-14.81 -17.34,-22.86 -42.48,-34.96 -65.72,-49.69 -3.69,-2.33 -8.92,-3.52 -13.32,-3.27 -11.85,0.66 -23.62,2.39 -37.82,3.98 -2.86,21.14 -7.23,44.7 -39.37,43.51 0,12.43 0,22.81 0,33.29 -22.06,24.48 -49.32,29.76 -82.18,17.07 -6.77,20.99 -12.54,38.88 -18.82,58.34 -7.09,-1.31 -13.12,-2.43 -21.38,-3.95 0.88,15.13 1.68,29.19 2.88,49.78 -15.42,-11.09 -27.03,-18.69 -37.76,-27.41 -10.28,-8.34 -19.6,-17.85 -30.13,-27.59 -12.56,29.31 4.24,59.11 -3.42,94.04 -14,-15.5 -25.06,-27.76 -38.12,-42.2 -10.92,34.1 -8.25,66.47 -3.65,98.16 6.25,43.18 19.72,84.42 39.05,123.88 64.86,132.43 147.49,253.89 229.87,375.53 56.35,83.22 112.74,166.41 169.22,249.55 68.95,101.51 136.86,203.76 207.36,304.19 71.08,101.19 144.06,201.07 217.55,300.53 68.91,93.28 138.37,186.22 209.89,277.49 54.8,69.95 113.08,137.19 170.03,205.44 24.09,28.88 49.15,56.92 72.9,86.05 6.27,7.66 7.73,19.34 14.24,26.64 6.61,7.45 18.26,10.38 25.09,17.73 50.05,53.69 100.34,107.22 148.59,162.51 18.76,21.5 39.22,42.12 51.73,69.12 6.71,14.47 19.4,26.19 29.48,39.07 2.96,3.8 7.12,6.87 9.29,11.04 37.09,71.36 87.8,133.59 133.75,198.96 29.09,41.37 60.98,80.76 90.4,121.92 36.95,51.73 72.66,104.38 108.97,156.58 4.95,7.13 9.49,14.83 15.6,20.87 69.04,68.37 122.35,149.31 180.69,226.18 88.2,116.22 175.55,233.08 263.24,349.68 62.12,82.63 124.27,165.23 186.2,248 7.51,10.01 13.69,21 21.5,33.11 -7.52,10.72 -15.29,21.81 -23.07,32.91 2.64,2.27 5.27,4.55 7.92,6.82 5.98,-10.51 11.99,-21.03 17.97,-31.53 14.98,10.5 17.17,16.51 13.62,29.95 -12.79,48.38 -45.45,84.64 -72.16,124.3 -34.52,51.28 -71.34,101.02 -107.87,150.88 -39.4,53.77 -78.83,107.53 -119.69,160.18 -50.31,64.8 -102.46,128.17 -153.11,192.72 -20.83,26.54 -40.14,54.31 -59.35,82.06 -4.47,6.43 -5.75,15.05 -5.47,24.54 23.36,-17.69 41.47,-39.29 58.45,-62.06 23.6,-31.63 50.06,-61.43 70.97,-94.74 34.1,-54.34 81.83,-97.05 120.35,-147.57 32.72,-42.92 69.94,-82.4 104.31,-124.1 20.86,-25.33 39.95,-52.08 60.09,-78.02 5.89,-7.58 12.06,-15.12 19.06,-21.67 12.03,-11.27 20.54,-24.2 28.68,-38.8 11.99,-21.54 30.13,-39.6 45.27,-59.45 5.11,-6.69 10,-13.86 13.28,-21.54 8.29,-19.5 31.61,-50.23 53.23,-65.52 -5.04,12.25 -8.28,20.08 -12.32,29.92 18.41,1.51 19.64,-17.13 32.6,-24.47 4,2.55 9.12,5.83 14.21,9.08 -7.6,-8.84 -11.14,-17.31 2.79,-26.68 4.97,6.89 12.37,12.59 12.81,18.75 0.8,11.38 -5.44,15.97 -15.69,6.82 5.52,10.31 1.27,18.3 -5.66,26.11 -17.9,20.12 -35.54,40.46 -53.2,60.78 -2.41,2.77 -4.35,5.95 -8.4,11.59 6.68,0.72 10.81,1.18 14.95,1.63 0.16,1.67 1.06,3.9 0.33,4.98 -37.63,53.72 -75.03,107.64 -113.34,160.89 -19.7,27.37 -37.63,57.32 -62.29,79.52 -71.09,64.03 -118.45,146.71 -178.32,219.43 -60.15,73.06 -115.08,150.43 -172.89,225.43 -16.28,21.12 -29.73,44.46 -54.14,59.3 -10.11,6.16 -14.03,22.38 -20.99,33.91 -5.07,8.43 -10.47,16.64 -18.58,23.42 -3.46,-19.9 7.31,-34.68 14.21,-50.85 7.11,-16.66 12.48,-34.06 19.84,-54.53 -6.5,2.09 -12.38,2.19 -15.19,5.18 -11.15,11.83 -22.26,23.89 -31.69,37.09 -25.26,35.31 -50.15,70.9 -74.18,107.06 -15.48,23.29 -28.62,48.12 -43.79,71.63 -16.75,25.97 -34.23,51.48 -52.12,76.67 -17.97,25.34 -32.23,51.93 -36.45,83.34 -0.95,7.18 -5.09,14.59 -9.54,20.55 -29.38,39.5 -59.2,78.67 -88.96,117.85 -45,59.2 -89.89,118.48 -135.17,177.46 -94.69,123.43 -189.77,246.55 -284.33,370.07 -38.17,49.85 -75,100.71 -113.29,150.46 -10.88,14.12 -24.73,25.94 -37.85,39.46 -11.63,-9.98 -14.8,-19.12 -8.88,-29.98 5.06,-9.3 10.78,-18.3 16.91,-26.94 46.33,-65.43 92.87,-130.72 139.18,-196.16 1.86,-2.62 2.05,-6.41 -1.54,-12.69 -15.24,16.53 -31.71,32.1 -45.52,49.75 -55.97,71.49 -111.61,143.22 -166.4,215.61 -40.18,53.07 -79.53,106.78 -117.96,161.13 -35.11,49.65 -68.94,100.22 -102.52,150.92 -50.1,75.62 -100.1,151.31 -149,227.69 -42.17,65.88 -82.86,132.69 -124,199.22 -40.63,65.68 -80.8,131.67 -121.57,197.27 -27.52,44.31 -56.19,87.91 -83.48,132.34 -20.21,32.89 -39.13,66.56 -58.38,100.02 -2.66,4.62 -3.91,10.04 -2.29,17.92 4,-2.7 9.03,-4.59 11.85,-8.21 40.47,-51.7 80.68,-103.6 108.41,-163.75 1.58,-3.43 3.28,-8.12 6.18,-9.46 30.32,-13.97 41.43,-44.32 59.56,-68.69 1.63,-2.18 4.3,-3.62 6.64,-5.2 0.51,-0.34 1.62,0.2 6.35,0.92 -68.77,128.8 -147.99,249.84 -227.73,377.28 23.21,-4.88 27.6,-21.74 38.01,-31.47 10.31,-9.63 19.1,-20.89 32.31,-35.64 4.11,41.04 -33.89,57.64 -37.04,90.47 19.29,-21.15 38.58,-42.3 57.87,-63.46 1.86,1.14 3.73,2.28 5.57,3.42 -1.64,5.58 -2.01,12.04 -5.17,16.58 -29.58,42.71 -60.03,84.8 -89.23,127.77 -6.13,9.04 -8.14,20.92 -12.03,31.49 l -0.6,-0.66 c 5.85,-4.54 12.85,-8.17 17.37,-13.8 24.79,-30.8 48.4,-62.57 73.51,-93.11 28.8,-35.01 58.69,-69.13 88.29,-103.49 1.64,-1.9 4.88,-2.45 8.62,-4.2 4.61,12.71 -3.32,20.02 -9.07,28.39 -7.57,10.98 -14.66,22.35 -21.36,33.9 -13.53,23.34 -26.68,46.88 -39.91,70.39 -5.2,9.21 -10.17,18.55 -15.25,27.83 -4.15,7.58 -7.1,16.22 -12.66,22.58 -37.72,43.26 -64.19,93.89 -94.15,142.23 -12.1,19.51 -3.91,37.85 -1.63,56.57 2.83,1.38 5.66,2.77 8.49,4.15 7.07,-8.95 13.97,-18.07 21.29,-26.81 28.48,-33.97 55.89,-68.94 86.09,-101.31 19.19,-20.55 37,-44.86 70.26,-46.75 7.6,-0.43 15.48,-10.59 21.76,-17.58 57.3,-63.79 114.15,-127.97 171.39,-191.82 35.39,-39.46 72.39,-77.52 106.43,-118.09 24.11,-28.69 44.17,-60.75 66.67,-90.86 13.78,-18.44 28.19,-36.5 43.39,-53.8 8.31,-9.43 9.32,-8.53 30.96,-3.1 -28.07,48.81 -60.06,93.82 -95.2,139.05 44.39,-6.18 55.32,-11.79 81.63,-40.55 9.77,-10.68 18.94,-22.15 29.92,-31.43 6.72,-5.68 16.38,-7.86 24.74,-11.63 10.21,-28.11 53.17,-81.37 74.72,-91.14 -1.15,19.2 -15.68,29.4 -25.54,40.88 -15.21,17.69 -25.18,41.3 -49.87,49.57 -13.34,18.61 -25.16,38.58 -40.31,55.57 -39.85,44.66 -82.01,87.24 -121.55,132.15 -28.11,31.89 -52.79,66.63 -69.31,106.37 -1.48,3.57 -4.89,6.97 -4.84,10.41 0.29,30.34 -20.82,50.72 -33.68,75.06 -26.6,50.37 -52,101.37 -77.68,152.2 -1.52,3.02 -1.13,7.02 -1.83,12 13.01,0.67 19.8,-4.34 22.58,-14.98 8.82,-33.63 33.5,-58.11 51.05,-86.54 11.32,-18.34 32.48,-27.82 55.92,-32.77 -23.43,34.2 -48.14,67.61 -69.95,102.81 -22.24,35.89 -41.64,73.57 -58.25,114.32 4.91,-3.24 10.74,-5.64 14.56,-9.87 13.58,-15.08 26.37,-30.85 39.66,-46.2 5.69,-6.55 11.64,-14.49 21.81,-8.91 10.54,5.8 10.07,15.2 6.33,25.25 -2.28,6.1 -3.76,12.52 -6.46,21.83 11.44,-4.05 19.55,-6.93 27.77,-9.83 8.01,18.15 -27.24,28.26 -4.13,48.27 48.76,-28.07 79.06,-80.83 132.77,-100.38 -4.31,37.2 -36.28,73.06 -68.43,76.26 -2,7.06 -2.6,18.86 -6.03,19.74 -25.51,6.6 -35.51,29.18 -49.53,46.72 -27.19,34.05 -50.98,70.45 -58.18,114.88 -0.57,3.57 -0.08,7.32 -0.08,14.07 6.6,-2.91 11.93,-4.04 15.68,-7.11 17.97,-14.6 35.94,-29.25 53.05,-44.84 9.17,-8.34 18.37,-17.6 24.41,-28.22 10.45,-18.32 28.8,-25.9 44.94,-37.29 -12.89,34.9 -44.69,55.66 -67.63,89.03 29.02,-3.03 52.74,-6.4 72.46,-23.06 12.68,-10.71 24.63,-20.12 43.89,-16.95 10.05,1.66 21.53,-5.34 34.85,-9.12 0.69,25.47 -24.82,33.06 -29.36,52.06 -4.41,18.47 -8.37,37.06 -12.87,57.1 14.87,6.11 28.77,11.82 44.14,18.14 -3.13,13.58 -16.05,20.83 -26.56,20 -15.2,-1.23 -20.07,7.77 -27.41,16.17 2.92,11.7 5.83,23.4 9.1,36.5 4.73,0 10.85,-1.6 15.67,0.2 31.26,11.9 55.61,-4.1 80.78,-18.3 5.92,-3.4 13.23,-4.3 19.91,-6.3 1.03,1.9 2.04,3.7 3.07,5.5 -7.55,8 -15.12,16 -22.59,24 5.8,13.2 11.41,26 18.61,42.4 21.41,0.9 33.88,-25.4 56.77,-32.6 21.69,-6.9 25.6,-39.9 54.81,-46.5 1.47,20.2 -8.66,32.3 -16.78,44.5 -7.71,11.6 -17.45,21.8 -23.25,36.7 4.94,-1.6 10.36,-2.3 14.73,-4.8 44.33,-25.6 88.72,-51.1 132.52,-77.6 11.38,-6.9 21,-16.82 31.01,-25.81 77.64,-69.69 156.41,-138.21 232.47,-209.61 83.14,-78.04 164.55,-157.99 245.16,-238.69 49.74,-49.81 97.46,-101.75 144.39,-154.24 56.54,-63.23 111.34,-128 166.65,-192.33 4.01,-4.67 6.23,-10.98 8.95,-16.69 3.02,-6.33 4.76,-13.49 8.76,-19.09 3.81,-5.35 10.95,-8.38 14.66,-13.77 21.26,-30.89 41.3,-62.63 63.05,-93.17 12.22,-17.16 26.24,-33.23 40.7,-48.61 25.72,-27.42 52.42,-53.92 78.69,-80.83 11.99,-12.28 23.98,-23.2 26.79,-42.85 1.69,-11.81 14.12,-22.47 22.67,-32.86 18.89,-22.9 38.39,-45.3 59.94,-70.64 -24.95,-7.65 -31.35,18.25 -50.82,17.83 0.88,-4.26 0.56,-9.02 2.68,-12.08 38.95,-56.07 75.03,-114.03 119.54,-166.4 50.43,-59.35 97.66,-121.46 145.34,-183.09 27.6,-35.69 52.73,-73.29 80.19,-109.09 10.47,-13.64 25.37,-23.81 36.45,-37.06 19.18,-22.95 37.15,-46.94 55.29,-70.75 27.48,-36.08 54.91,-72.2 81.86,-108.66 15.91,-21.51 30.29,-44.17 46.48,-65.48 14.43,-19 31.13,-36.29 45.54,-55.32 45.32,-59.91 87.01,-122.9 135.98,-179.61 35.97,-41.65 57,-91.65 89.69,-134.8 57.16,-75.45 110.98,-153.43 166.6,-230.06 78.32,-107.91 157.01,-215.57 235.61,-323.29 1.66,-2.26 4.19,-3.89 9.06,-8.3 16.12,18.67 32.06,37.12 48,55.58 1.42,-0.63 2.85,-1.28 4.28,-1.91 -2.25,-9.54 -3.34,-19.54 -7.01,-28.49 -6.12,-15.02 -12.94,-29.91 -21.24,-43.8 -7.43,-12.46 -2.16,-19.71 9.31,-28.82 93.88,139.99 170.62,290.12 264.61,429.37 93.77,138.87 175.46,285.85 281.02,417.13 -7.75,-31.03 -28.95,-55.61 -40.19,-85.29 27.01,31.85 53.48,63.88 68.96,104.23 -4.92,-4 -9.82,-8.01 -14.73,-12.02 33.31,79.71 82.92,148 137.86,215.37 13.43,-7.26 21.89,-3.88 29.74,11.74 7.44,14.8 21.69,26.17 32.84,39.15 2.99,3.46 5.6,7.26 9.97,12.99 -7.6,1.5 -12.55,2.47 -20.03,3.95 12.35,35.69 36.87,63.09 57.4,92.74 3.67,5.32 11.08,8.06 21.2,15.07 -4.2,-32.87 -37.24,-45.29 -35.66,-81.3 22.35,31.37 41.07,57.63 59.79,83.91 l -0.38,0.6 c 1.95,-5.22 3.86,-10.44 7.62,-20.62 48.3,62.81 94.77,123.21 141.21,183.6 -1.23,1.37 -2.46,2.73 -3.69,4.11 -5.56,-3.76 -11.12,-7.51 -16.85,-11.39 2.34,21.28 66.93,104.37 99.76,128.68 -13.28,-19.88 -26.44,-39.67 -39.62,-59.45 1.71,-1.26 3.43,-2.51 5.14,-3.77 12.71,16.03 25.88,31.72 37.67,48.4 1.9,2.68 -2.24,9.65 -3.59,14.65 23.05,31.63 45.67,63.59 69.32,94.8 12.27,16.2 26.33,31.07 43.21,43.38 -13.29,-18.4 -26.58,-36.82 -39.87,-55.23 1.9,-1.42 3.8,-2.83 5.69,-4.25 24.73,25.71 46.46,54.05 68.2,82.37 l -1.11,-0.97 c 16.46,20.17 32.92,40.35 49.31,60.63 23.02,26.34 47.98,51.11 67.05,82.48 -4.27,0 -6.9,0.77 -7.65,-0.11 -17.72,-20.36 -35.74,-40.49 -52.43,-61.66 -4.34,-5.49 -4.44,-14.31 -6.51,-21.6 -7.43,-1.97 -14.86,-3.92 -28.27,-7.48 61.09,78.82 124.01,149.45 189.54,220.8 3.25,-4.96 5.57,-8.49 10.2,-15.55 16.06,17.89 31.44,35 46.79,52.09 -1.31,1.35 -2.63,2.72 -3.94,4.07 -9.11,-7.72 -18.21,-15.44 -28.71,-24.33 5.23,17.12 165.51,197.86 229.57,260.05 1.63,-3.18 3.06,-5.98 5.7,-11.13 8.24,9.78 28.31,10.41 14.95,31.8 -3.69,5.84 30.16,39.77 35.26,35.98 10.65,-7.92 13.81,0.09 18.44,5.31 25.57,28.83 51.08,57.72 76.08,87.04 4.12,4.83 6.83,11.71 7.94,18.05 1.32,7.67 8.4,8.68 11.16,12.09 15.27,18.8 42.28,25.49 51.1,50.83 2.08,5.94 9.08,11.46 15.15,14.48 27.41,13.64 43.59,35.37 49.87,62.28 11.8,6.94 25.83,10.78 32.24,19.93 11.34,16.18 27.02,12.39 41.43,14.45 8.58,1.23 14.63,-4.35 14.63,-13.97 -0.01,-16.08 4.12,-32.82 -9.02,-46.68 -3.64,-3.83 -5.09,-9.77 -9.09,-17.89 24.09,3.31 19.69,34.99 43.1,35.92 -3.34,-20.78 -35,-32.09 -17.29,-59.89 75.03,77.77 148.16,154.67 222.51,230.35 74.17,75.48 141.92,157.29 224.79,233.2 -0.34,-20.49 -9.73,-29.51 -17.25,-37.95 -26.92,-30.22 -55.03,-59.36 -82.67,-88.96 -2.56,-2.75 -6.66,-5.67 -6.93,-8.78 -1.85,-21.48 -20.23,-32.06 -30.61,-47.85 -2.49,-3.78 -5.64,-7.12 -6.45,-12.55 81.85,69.23 152.49,149.73 226.53,226.79 1.82,-1.3 3.62,-2.6 5.41,-3.8 -10.65,-17.4 -21.33,-34.69 -33.05,-53.72 30.66,-0.9 32.25,33.52 56.95,43.02 -7.59,-22.23 -27.28,-36.22 -30.46,-57.48 1.78,-1.24 3.56,-2.49 5.33,-3.74 35.67,41.19 71.34,82.32 107.35,123.92 -0.19,-12.5 -7.7,-22.3 -15.27,-32.9 -35.27,-49.6 -69.73,-99.71 -104.35,-149.72 -0.83,-1.2 -0.11,-3.48 -0.11,-7.34 3.69,1.14 7.86,1.17 10.05,3.28 32.46,31.3 65.56,62.01 96.61,94.67 25.89,27.21 49.28,56.81 73.77,85.41 15.34,17.9 32.57,31.5 60.78,25.9 -6.59,-26 -24.58,-45 -37.79,-66.5 -13.1,-21.3 -28.26,-41.36 -40.22,-63.22 -5.08,-9.29 -3.81,-21.91 -6.28,-32.82 -1.83,-8.08 -3.57,-16.78 -7.91,-23.6 -41.41,-65.06 -83.34,-129.83 -125.22,-194.59 -20.93,-32.36 -41.52,-64.94 -63.37,-96.68 -9.78,-14.23 -22.65,-26.28 -33.32,-39.94 -9.46,-12.07 -18.71,-24.52 -26.27,-37.83 -3.01,-5.31 -1.26,-13.32 1.51,-21.4 33.77,24.62 57.06,57.32 84.06,89.83 9.35,-22.32 5.09,-40.78 -5.49,-59.68 -9.77,-17.44 -17.34,-36.09 -25.81,-54.29 -19.47,-20.47 -37.08,-42.18 -46.05,-69.78 19.61,18.95 38.38,38.51 47.2,65.29 0.46,1.39 -1.26,3.51 -1.97,5.28 11.6,12.43 25.27,23.52 34.37,37.55 22.55,34.8 41.33,72.11 64.77,106.26 24.9,36.31 49.35,73.92 93.12,92.31 9.95,4.18 16.78,15.57 25.32,23.35 35.52,32.38 71.12,64.64 108.58,98.68 7.13,-11.86 4.32,-16.79 -2.02,-22.69 -17.53,-16.35 -34.91,-32.9 -51.17,-50.45 -12.05,-12.99 -15.08,-29.65 -12.33,-48.55 36.82,49.32 80.8,90.81 125.99,131.09 1.72,-1.33 3.45,-2.66 5.18,-4 -3.22,-6.4 -5.98,-13.08 -9.74,-19.14 -5.59,-9.03 -12.86,-17.16 -17.41,-26.63 -2.39,-4.99 -2.23,-12.92 0.23,-17.79 1.27,-2.57 10.24,-2.69 15.22,-1.6 5.37,1.19 10.11,5.09 17.59,9.16 0,-8.51 0,-15.14 0,-21.16 15.17,-4.55 16.98,26.19 35.7,8.59 -15.35,-37.15 -30.86,-74.77 -46.41,-112.38 29.32,9.21 43.23,28.18 45.65,55.83 0.26,3.14 3.72,6.03 5.83,8.93 2.58,3.56 6.26,6.63 7.84,10.57 19.07,47.56 51.56,82.43 97.81,104.42 1.39,0.66 3.61,-0.36 7.15,-0.82 -7.95,-44.52 -39.07,-78.52 -54.25,-119.64 24.06,13.41 29.93,40.98 49.75,61.43 6.63,-17.54 7.92,-32.82 3.85,-48.51 -7.43,-28.62 -7.55,-28.59 0.94,-72.99 10.72,12.14 18.55,24.14 29.3,32.31 11.23,8.54 25.27,13.4 39.09,20.39 8.98,-9.86 17.68,-19.42 29.93,-32.85 1.97,12.03 4.51,20 4.35,27.92 -0.4,19.08 0.13,20.2 18.13,20.17 2.83,-0.01 5.66,0.62 8.49,0.83 2.82,0.22 5.62,0.28 6.63,0.35 23.87,-27.41 16.12,-58.93 11.19,-90.04 2.03,-0.31 4.04,-0.61 6.07,-0.94 4.92,6.33 9.84,12.64 14.51,18.62 11.72,-2.26 22.6,-4.37 36.29,-7.03 -3.79,-16.14 -8.02,-33.46 -11.97,-50.84 -3.53,-15.71 -26.61,-23.64 -18.32,-46.1 22.43,8 31.31,28.51 48.66,48.89 -0.86,-12.71 -0.74,-18.87 -1.76,-24.86 -12.64,-73.84 -37.72,-143.01 -72.67,-209.5 -48.56,-92.36 -92.39,-187.18 -140.92,-279.57 -43.07,-82 -87.01,-163.62 -143.16,-238.09 -24.28,-32.21 -42.81,-68.72 -65.13,-102.49 -10.7,-16.2 -19.31,-33.3 -38.71,-44.15 -14.66,-8.2 -23.44,-27.08 -34.61,-41.36 -30.23,-38.62 -61.52,-76.47 -82.8,-121.31 -7,-14.77 -16.48,-28.37 -24.83,-42.51 -0.98,-1.66 -1.63,-4 -3.11,-4.83 -34.56,-19.48 -47.21,-57.3 -71.54,-85.3 -1.03,-1.18 -3.18,-1.35 -9.51,-3.86 2.85,13.46 5.16,24.46 8.28,39.2 -18.68,-17.97 -36.07,-31.43 -49.35,-48.15 -29.28,-36.86 -56.15,-75.63 -84.63,-113.17 -31.45,-41.48 -64.23,-81.97 -95.2,-123.8 -22.21,-30.01 -41.66,-62.06 -63.68,-92.23 -30.14,-41.32 -61.34,-81.89 -92.47,-122.49 -64.83,-84.58 -129.3,-169.43 -195.21,-253.15 -21.4,-27.21 -47.97,-50.29 -70.09,-76.99 -60.39,-72.91 -119.73,-146.68 -179.36,-220.22 -52.33,-64.58 -104.61,-129.21 -156.73,-193.96 -61.78,-76.79 -123.44,-153.68 -184.97,-230.66 -14.46,-18.08 -28.44,-36.57 -42.13,-55.25 -7.21,-9.85 -18.19,-16.54 -26.45,-8.2 -10.13,10.23 -18.22,6.42 -30.46,-0.66 17.04,27.74 31.52,51.18 45.82,74.71 2.5,4.09 6.52,8.78 6.13,12.86 -2.85,30 18.22,45.78 35.79,64.4 9.41,9.98 16.04,22.69 23.12,34.66 0.7,1.2 -4.19,5.72 -6.49,8.72 -37.79,-31.4 -367.22,-468.87 -387.22,-529.78 30.26,36.47 66.65,67.71 86.77,112.71 7.86,17.61 15.91,36.17 33.42,49.29 10.8,8.09 13.81,25.96 23.95,35.66 23.64,22.66 33.11,54.55 55.3,78.31 22.14,23.7 40.18,51.26 62.3,80.12 6.92,-19.15 -6.85,-25.91 -11.17,-35.97 -4.51,-10.55 -10.84,-20.34 -16.56,-30.37 -6.15,-10.8 -12.47,-21.51 -18.35,-31.63 4.05,-6.83 7.31,-12.32 10.38,-17.49 -93.45,-113.68 -197.17,-216.82 -278.16,-338.63 -2.81,-4.24 -3.96,-9.6 -3.69,-15.84 46.95,39.09 81.53,88.89 122,133.32 40.2,44.13 80.49,88.21 125.36,129.6 -3.05,-5.92 -5.29,-12.53 -9.35,-17.68 -42.44,-53.84 -84.78,-107.8 -127.96,-161.04 -32.77,-40.43 -67.96,-78.94 -99.81,-120.05 -33.04,-42.67 -62.92,-87.78 -94.98,-131.23 -28.64,-38.81 -58.35,-76.84 -87.67,-115.16 -8.8,-11.5 -17.67,-22.97 -26.95,-34.09 -5.86,-7.05 -12.56,-13.42 -18.9,-20.08 -1.94,1.16 -3.86,2.35 -5.8,3.52 7,17.71 14.02,35.4 22.68,57.34 -47.4,-29.05 -63,-82.51 -107.54,-113.27 9.25,-14.25 17.98,-29.92 28.78,-43.97 34.71,-45.11 69.79,-89.96 105.46,-134.3 32.64,-40.57 67.24,-79.58 99.17,-120.68 39.06,-50.25 76.4,-101.85 114.07,-153.18 5.88,-8 9.62,-17.55 16.05,-29.55 -18.73,7.67 -32.41,13.26 -46.08,18.87 -1.01,16.47 -10.1,25.11 -27.99,30.06 5.43,-17.33 16.29,-24.14 28.68,-29.42 12.98,-17.8 26.55,-35.21 38.84,-53.49 30.17,-44.83 60.4,-89.63 89.43,-135.2 59.62,-93.58 117.8,-187.94 187.69,-274.71 53.87,-66.89 103.49,-137.2 154.38,-206.45 51.98,-70.72 103.54,-141.76 154.71,-213.08 33.06,-46.06 65.06,-92.89 97.59,-139.35 14.9,-21.27 29.53,-42.79 45.19,-63.51 3.4,-4.5 15.75,-7.57 15.4,-8.81 -6.34,-21.97 12.84,-31.17 21.82,-45.1 9.92,-15.43 20.16,-30.8 31.72,-45 20.63,-25.35 42.56,-49.62 63.49,-74.71 6.08,-7.29 13.09,-15.22 15.32,-23.96 5.14,-20.23 17.94,-33.85 33.49,-45.75 16.44,-12.56 30.79,-26.2 35.11,-47.81 1.06,-5.36 5.08,-10.37 8.54,-14.94 17.42,-22.94 33.52,-47.13 53.05,-68.16 30.15,-32.48 50.78,-71.69 78.96,-105.55 27.79,-33.38 52.76,-69.13 78.7,-104.03 26.52,-35.64 52.61,-71.62 79.1,-107.3 66.23,-89.22 132.09,-178.72 199.03,-267.41 71.56,-94.85 145.55,-187.91 215.95,-283.61 67.53,-91.76 131.57,-186.1 197.67,-278.92 17.35,-24.35 36.76,-47.21 55.11,-70.83 4.39,-5.64 8.31,-11.62 10.97,-19.21 -19.17,19.81 -41.94,29.72 -69.85,31.51 -6.52,-25.02 18.83,-32.53 24.41,-49.65 l 0.69,0.73 c -12.16,1.04 -24.32,2.08 -39.08,3.32 -15.3,21.4 -34.54,42.35 -62.49,52.77 1.97,-21.72 15.75,-35.51 26.49,-50.62 15.11,-21.23 31.82,-41.36 48.71,-61.25 10.8,-12.68 19.09,-23.47 14.4,-43.08 -2.51,-10.5 6.6,-26.01 14.36,-36.33 35.96,-47.81 73.19,-94.69 110.22,-141.7 12.56,-15.93 25.86,-31.26 38.79,-46.89 1.84,-2.23 4.12,-4.39 5.12,-7 6.94,-18.14 13.58,-36.4 21.81,-58.63 -10.13,7.15 -17.33,12.23 -24.55,17.32 6.52,-24.79 0.03,-53.37 22.59,-72.55 16.59,-14.12 9.69,-34.07 13.7,-51.9 -37.65,49.07 -84.92,86.96 -135.18,125.65 -5.46,-1.48 -13.52,-3.66 -25.57,-6.93 16.25,-28.69 37.14,-51.3 57.34,-76.15 -5.94,2.73 -11.88,5.45 -17.83,8.16 -0.97,-0.81 -1.94,-1.61 -2.91,-2.41 18.02,-19.92 36.47,-39.45 53.9,-59.85 17.92,-20.96 34.84,-42.75 52.19,-64.17 -1.51,-1.47 -3.03,-2.96 -4.54,-4.41 -18.69,18.23 -38.01,35.86 -55.91,54.82 -21.81,23.13 -39.33,51.63 -64.49,69.84 -21.53,15.62 -44.1,27.83 -58.4,51.61 -5.04,8.38 -14.73,14.35 -23.18,20.17 -5.32,3.66 -12.27,5 -18.48,7.36 -1.03,-1.6 -2.08,-3.21 -3.12,-4.81 2.83,-5.81 4.78,-12.29 8.63,-17.33 18.72,-24.59 37.54,-49.13 57.17,-72.99 13.88,-16.86 14.47,-16.37 34.55,-14.85 5.72,-8.39 12.1,-15.69 16.01,-24.12 3.58,-7.74 4.5,-16.73 6.56,-25.03 9.09,-5.42 19.02,-11.32 28.95,-17.24 -0.98,-2.06 -1.96,-4.11 -2.95,-6.17 -6.91,2.26 -13.82,4.52 -20.74,6.78 -1.15,-1.08 -2.32,-2.16 -3.48,-3.23 15.43,-20.66 30.86,-41.33 47.28,-63.32 -15.59,-6.04 -20.08,21.34 -35.91,5.78 3.39,-9.89 7.1,-20.67 12.05,-35.15 -24.21,8.06 -38.66,48.66 -66.92,12.92 -22.08,8.01 -30.83,45.12 -65.4,31.89 4.76,-8.7 9.01,-16.82 13.53,-24.75 6.01,-10.54 9.82,-25.09 27.36,-12.51 2.22,1.59 10.44,-5.21 16.52,-8.49 -21.72,-18.77 -26.91,-35.35 -14.81,-51.06 21.66,-28.12 44.73,-55.14 67.91,-83.46 7.44,3.14 13.29,5.61 21.21,8.97 3.12,-5.1 10.56,-13.05 9.05,-15.48 -13.42,-21.66 2.28,-28.34 16.6,-37.29 6.48,-4.05 10.92,-11.31 16.91,-17.79 -14.42,-12.32 -21.84,-2.32 -30.72,2.08 -8.88,4.42 -18.62,7.12 -29.18,11.02 -30.18,49.66 -75.13,85.38 -129.94,111.16 3.69,-6.2 6.59,-13.08 11.23,-18.46 10.1,-11.67 20.08,-23.76 31.92,-33.49 16.84,-13.85 23.7,-30.73 22.1,-55.57 -5.98,6 -9.99,10.56 -14.55,14.51 -16.61,14.37 -30.6,31.35 -52.42,40.11 -12.66,5.07 -22.94,17.36 -32.81,27.79 -8.37,8.87 -15.46,10.53 -24.05,1.52 -10.14,10.92 -19.45,21.95 -29.87,31.84 -6.91,6.57 -14.71,14.85 -23.27,16.53 -21.66,4.23 -35.24,18.8 -50.02,32.55 -23.99,22.33 -48.43,44.17 -72.23,66.68 -13.84,13.1 -26.79,27.14 -40.18,40.73 -32.52,33 -65.06,66.01 -97.67,98.93 -2.63,2.65 -5.86,4.71 -9.24,7.4 -5.32,-3.31 -10.02,-6.23 -14.49,-9.03 0.21,-2.47 -0.18,-4.6 0.62,-6.07 9.01,-16.66 24.84,-28.24 30.1,-48.64 2.68,-10.43 19.12,-24.12 29.52,-24.27 16.86,-0.23 23.97,-9.66 33.35,-18.8 44.95,-43.77 90.08,-87.39 134.79,-131.41 10.07,-9.93 20.4,-19.06 20.64,-36.43 0.1,-7.89 11.15,-17.23 19.26,-23.14 38.17,-27.89 77.14,-54.69 115.6,-82.21 6.67,-4.77 12.2,-11.15 18.26,-16.79 -1.03,-1.88 -2.06,-3.75 -3.09,-5.63 -19.18,6.4 -38.54,12.37 -57.52,19.34 -19.27,7.08 -38.18,15.13 -57.25,22.75 -1.17,-1.94 -2.34,-3.87 -3.5,-5.8 13.64,-14.09 27.92,-27.64 40.78,-42.41 11.98,-13.76 22.49,-28.8 34.41,-44.28 -17.43,-4.59 -30.92,2.49 -44.94,9.04 -19.13,8.91 -39.01,16.29 -58.21,25.1 -7.44,3.41 -14.52,8.3 -20.73,13.68 -13.02,11.28 -25.37,23.32 -37.97,35.08 -4.64,4.33 -9.16,8.76 -13.74,13.15 -4.85,4.65 -8.96,10.69 -14.67,13.69 -22.2,11.68 -43.18,24.73 -60.54,43.2 -2.71,2.9 -7.75,3.68 -11.72,5.43 -1.49,-1.44 -2.97,-2.89 -4.44,-4.32 5.37,-7.2 10.27,-14.79 16.16,-21.53 26.04,-29.83 52.59,-59.2 78.45,-89.18 11.15,-12.93 21.84,-25.17 18.15,-45.9 -3.23,-18.12 14.59,-27.42 28.13,-32.52 19.55,-7.5 26.85,-24.6 44.23,-39.8 -18.17,2.7 -30.81,4.6 -39.91,5.9 -55.02,39.8 -107.85,78.1 -160.98,115.92 -2.99,2.13 -8.8,0.28 -19.91,0.28 8.09,-9.76 11.75,-15.91 16.97,-20.15 24.01,-19.42 48.82,-37.9 72.56,-57.65 8.32,-6.9 14.42,-16.5 23.64,-27.3 -23.64,-6.9 -36.79,3.5 -48.6,14.4 -58.32,53.78 -121.59,101.24 -186.51,146.65 -3.53,2.46 -8.26,3.2 -15.53,5.88 0.58,-22.43 22.13,-25.6 28.15,-39.48 5.83,-13.41 10.78,-27.2 17.72,-44.89 7.48,8.78 11.43,13.41 14.54,17.07 25.52,-20.49 50.92,-40.9 76.33,-61.33 -19.33,-2.8 -32.02,7.29 -45.21,16.41 -5.4,3.73 -13.14,10.98 -16.58,9.43 -18.77,-8.41 -26.18,5.89 -35.89,15.68 -13.16,13.29 -67.36,43.22 -91.95,48.17 10,-9.84 15.44,-17.86 22.99,-22.16 37.76,-21.42 54.94,-60.22 79.71,-92.63 4.06,-5.3 5.62,-12.9 10.35,-17.2 16.33,-14.8 18.66,-32.7 13.53,-56.6 -14.81,10.4 -28.88,19.4 -42.04,29.6 -36.61,28.3 -72.83,57.2 -109.17,85.84 -40.93,32.27 -82.28,63.99 -122.62,96.96 -64.26,52.54 -128.89,104.71 -191.35,159.33 -50.75,44.36 -98.58,92.07 -147.62,138.39 -4.89,4.63 -10.29,9.4 -13.32,15.2 -7.72,14.8 -19.08,24.7 -32.21,35.21 -28.37,22.76 -53.62,49.5 -79.28,75.47 -32.58,32.98 -64.39,66.69 -96.34,100.31 -21.24,22.36 -41.98,45.23 -63.16,67.64 -50.39,53.32 -102.2,105.35 -151.02,160.04 -61.06,68.4 -119.54,139.11 -179.44,208.53 -25.26,29.25 -51.51,57.67 -76.98,86.75 -10.1,11.51 -19.31,23.76 -31.04,38.29 14.81,-5.04 37.35,-22.72 47.99,-36.11 1.18,-1.49 1.42,-4.09 2.83,-4.98 20.12,-12.79 30.6,-33.87 45.4,-51.28 14.83,-17.45 33.22,-31.84 49.9,-47.77 4.13,-3.94 9.34,-8 11.07,-13.03 10.06,-29.43 30.83,-49.58 54.55,-68.2 10.43,-8.19 18.55,-19.69 26.47,-30.6 10.22,-14.04 19.39,-28.04 37.89,-33.42 6.17,-1.79 13.47,-10.43 14.55,-16.88 4.06,-24.67 23.71,-37.11 39.62,-51.17 18.84,-16.61 34.67,-34.36 49.28,-54.97 15.75,-22.22 34.77,-42.74 58.4,-59.1 17.6,-12.17 29.83,-32.14 44.28,-48.77 48.12,-55.45 99.44,-107.68 154.65,-156.18 80.5,-70.72 160.57,-141.95 240.82,-212.99 2.86,-2.52 7.63,-5.22 7.83,-8.08 1.73,-25.33 23.97,-33.98 39.25,-47.2 40.88,-35.38 83.21,-69.09 125.26,-103.1 10.48,-8.48 21.74,-16.15 33.29,-23.1 4.1,-2.46 10.19,-1.63 16.9,-2.5 -1.15,25.63 -25.19,32.35 -38.73,55.39 11.33,-3.66 17.26,-4.23 21.54,-7.19 23.78,-16.51 47.07,-33.75 70.8,-50.39 5.03,-3.54 11.12,-5.55 18.89,-9.3 -6.74,17.5 -100.25,103.9 -149.58,139.6 -4.55,3.3 -10.91,4.1 -22.12,8.1 14.09,-31.97 37.76,-48.49 52.98,-71.78 -58.8,37.84 -105.49,89.04 -158.33,133.15 1.26,1.9 2.54,3.8 3.82,5.7 18.26,-10.64 36.51,-21.29 54.77,-31.93 1.34,1.39 2.69,2.76 4.04,4.15 -1.29,2.77 -1.88,6.31 -3.98,8.17 -15.78,14.07 -32.84,26.57 -36.29,50.22 -0.92,6.38 -9.07,11.95 -14.37,17.44 -26.7,27.65 -58.09,51.07 -75.61,86.88 -3.23,6.59 -9.36,13.01 -15.77,16.59 -39.04,21.76 -62.79,59.34 -93.94,89.21 -5.57,5.32 -11.12,10.69 -16.87,15.82 -1.3,1.13 -4.65,2.28 -5.05,1.79 -11.26,-13.8 -29.7,12.01 -40.72,-12.57 -0.22,-2.91 -0.86,-11.18 -1.51,-19.46 l 0.17,0.37" /></g></g></svg>